<svg width="68" height="65" viewBox="0 0 68 65" fill="none" xmlns="http://www.w3.org/2000/svg">
<path d="M34 64.9106C52.7777 64.9106 68 50.5838 68 32.9106C68 15.2375 52.7777 0.910645 34 0.910645C15.2223 0.910645 0 15.2375 0 32.9106C0 50.5838 15.2223 64.9106 34 64.9106Z" fill="#232627"/>
<path d="M44.3834 35.3538L45.6278 27.8388H37.8418V22.9662C37.8418 20.9093 38.9452 18.9064 42.4047 18.9064H45.9348V12.5084C43.8617 12.1973 41.7668 12.0273 39.667 12C33.2788 12 29.1307 15.5976 29.1307 22.115V27.8427H22V35.3538H29.1307V53.523C32.0292 53.9441 34.9806 53.9441 37.8791 53.523V35.3538H44.3834Z" fill="white"/>
</svg>
