<svg width="45" height="35" viewBox="0 0 45 35" fill="none" xmlns="http://www.w3.org/2000/svg">
<path d="M13.9502 34.3426C30.5724 34.3426 39.6391 21.3956 39.6391 10.1648C39.6391 9.79817 39.6307 9.43155 39.6139 9.06493C41.3805 7.86164 42.9053 6.37192 44.117 4.66552C42.47 5.35246 40.7229 5.80309 38.9339 6.00241C40.8178 4.94046 42.2282 3.27108 42.9031 1.30434C41.1359 2.2853 39.2044 2.97624 37.1911 3.3476C35.832 1.97138 34.027 1.05747 32.0578 0.748562C30.0887 0.439652 28.0663 0.753133 26.3064 1.64006C24.5466 2.52698 23.1483 3.93743 22.3299 5.65116C21.5115 7.36489 21.3191 9.28544 21.7828 11.1129C18.1936 10.9439 14.6824 10.0664 11.4768 8.53751C8.27131 7.00861 5.44317 4.86244 3.17596 2.23826C2.02036 4.10804 1.66515 6.32197 2.18263 8.42952C2.7001 10.5371 4.05137 12.3799 5.96144 13.5829C4.52741 13.5421 3.12474 13.178 1.87136 12.5209C1.87136 12.5541 1.87136 12.592 1.87136 12.63C1.87335 14.5916 2.59618 16.4923 3.91727 18.0096C5.23837 19.5269 7.0764 20.5674 9.11966 20.9547C7.79109 21.296 6.39712 21.3462 5.0447 21.1017C5.62095 22.79 6.74354 24.2667 8.25542 25.3249C9.76731 26.3832 11.5929 26.9702 13.4767 27.0039C10.2779 29.3645 6.32911 30.645 2.26425 30.64C1.54379 30.6403 0.823926 30.6008 0.108398 30.5215C4.2359 33.0171 9.03932 34.3419 13.9451 34.3378" fill="white"/>
</svg>
