<svg width="68" height="71" viewBox="0 0 68 71" fill="none" xmlns="http://www.w3.org/2000/svg">
<g clip-path="url(#clip0_666_208)">
<path d="M33.8209 65.9106C52.5986 65.9106 67.8209 51.5838 67.8209 33.9106C67.8209 16.2375 52.5986 1.91064 33.8209 1.91064C15.0432 1.91064 -0.179077 16.2375 -0.179077 33.9106C-0.179077 51.5838 15.0432 65.9106 33.8209 65.9106Z" fill="#232627"/>
<path d="M17.2095 17.2798L30.1121 36.0898L17.4828 50.7198H20.2809L31.3479 37.891L40.1479 50.7198H50.7199L37.2398 31.0693L49.1353 17.2798H46.3457L36.0023 29.2629L27.7815 17.2798H17.2095ZM20.5507 19.0398H26.8551L47.3787 48.9598H41.0743L20.5507 19.0398Z" fill="white"/>
</g>
<defs>
<clipPath id="clip0_666_208">
<rect width="68" height="71" fill="white"/>
</clipPath>
</defs>
</svg>
