<svg width="68" height="64" viewBox="0 0 68 64" fill="none" xmlns="http://www.w3.org/2000/svg">
<path d="M34 63.9106C52.7777 63.9106 68 49.5838 68 31.9106C68 14.2375 52.7777 -0.0893555 34 -0.0893555C15.2223 -0.0893555 0 14.2375 0 31.9106C0 49.5838 15.2223 63.9106 34 63.9106Z" fill="#232627"/>
<path d="M37.6828 25.8892C38.2192 25.3175 38.6492 24.7413 39.2098 24.252C40.0066 23.5166 40.9503 22.9389 41.9857 22.5526C43.0211 22.1663 44.1274 21.9791 45.2401 22.0019C46.519 21.9893 47.7937 22.1432 49.0283 22.4592C51.8599 23.2321 53.5027 25.0797 54.2904 27.6957C54.8147 29.6557 55.0505 31.6749 54.991 33.6959C54.991 37.9583 54.991 42.2253 54.991 46.5014C54.991 46.8992 54.875 47.0044 54.4595 46.9999C52.1369 46.9816 49.8159 46.9816 47.4966 46.9999C47.0859 46.9999 47.0134 46.8855 47.0134 46.5197C47.0037 42.4341 46.9989 38.3653 46.9989 34.3134C47.0242 33.2942 46.899 32.2767 46.6268 31.2904C46.0712 29.461 44.694 28.5463 42.6791 28.6424C39.9249 28.7796 38.4946 30.0693 38.1467 32.7172C38.0643 33.3484 38.024 33.9838 38.0259 34.6198C38.0259 38.5666 38.0259 42.5134 38.0259 46.4602C38.0259 46.8535 37.9244 46.9678 37.4992 46.9678C35.1606 46.9496 32.8219 46.9496 30.4832 46.9678C30.1063 46.9678 30 46.8764 30 46.5105C30 38.6962 30 30.8833 30 23.072C30 22.6833 30.1353 22.6147 30.5219 22.6147C32.7413 22.6299 34.9608 22.6299 37.1803 22.6147C37.591 22.6147 37.6925 22.7382 37.6635 23.104C37.6684 24.0233 37.6828 24.9563 37.6828 25.8892Z" fill="#FEFEFE"/>
<path d="M25 35.0494C25 38.8514 25 42.6535 25 46.4555C25 46.8784 24.9031 47.0044 24.4943 46.9999C22.4714 46.9774 20.4485 46.9999 18.4214 46.9999C18.0969 46.9999 18 46.9144 18 46.5499C18 38.8499 18 31.1499 18 23.4499C18 23.1305 18.0716 23 18.3877 23C20.4401 23 22.4925 23 24.5449 23C24.941 23 24.9916 23.1575 24.9916 23.5219C24.9916 27.3644 24.9944 31.2069 25 35.0494Z" fill="#FEFEFE"/>
<path d="M25.9999 15.4765C26.0046 16.3677 25.7445 17.2402 25.2527 17.9835C24.7608 18.7267 24.0594 19.3071 23.2373 19.6511C22.4151 19.9952 21.5094 20.0874 20.6348 19.916C19.7602 19.7447 18.9562 19.3175 18.3247 18.6886C17.6932 18.0598 17.2626 17.2576 17.0876 16.3837C16.9126 15.5098 17.001 14.6037 17.3416 13.7801C17.6822 12.9566 18.2597 12.2527 19.0009 11.7578C19.742 11.2628 20.6134 10.9991 21.5046 11C22.6921 11.0049 23.8298 11.4775 24.6713 12.3154C25.5127 13.1534 25.9901 14.2891 25.9999 15.4765Z" fill="#FEFEFE"/>
</svg>
