<svg width="68" height="65" viewBox="0 0 68 65" fill="none" xmlns="http://www.w3.org/2000/svg">
<path d="M34 64.9106C52.7777 64.9106 68 50.5838 68 32.9106C68 15.2375 52.7777 0.910645 34 0.910645C15.2223 0.910645 0 15.2375 0 32.9106C0 50.5838 15.2223 64.9106 34 64.9106Z" fill="#232627"/>
<path d="M33.5185 18.291C38.7311 18.291 39.3465 18.291 41.404 18.3984C42.6413 18.4118 43.867 18.6239 45.0276 19.0256C45.8699 19.3293 46.635 19.7947 47.2733 20.3919C47.9117 20.989 48.4092 21.7047 48.7338 22.4927C49.1632 23.5784 49.39 24.725 49.4043 25.8825C49.4961 27.8073 49.5191 28.3873 49.5191 33.2593C49.5191 38.1313 49.5191 38.7113 49.4043 40.636C49.39 41.7935 49.1632 42.9401 48.7338 44.0258C48.4092 44.8138 47.9117 45.5295 47.2733 46.1267C46.635 46.7238 45.8699 47.1892 45.0276 47.4929C43.867 47.8946 42.6413 48.1068 41.404 48.1201C39.3465 48.2061 38.7311 48.2275 33.5185 48.2275C28.3059 48.2275 27.6905 48.2275 25.633 48.1201C24.3957 48.1068 23.17 47.8946 22.0095 47.4929C21.1671 47.1892 20.4021 46.7238 19.7637 46.1267C19.1254 45.5295 18.6279 44.8138 18.3033 44.0258C17.8739 42.9401 17.647 41.7935 17.6327 40.636C17.5409 38.7113 17.5179 38.1313 17.5179 33.2593C17.5179 28.3873 17.5179 27.8073 17.6327 25.8825C17.647 24.725 17.8739 23.5784 18.3033 22.4927C18.6279 21.7047 19.1254 20.989 19.7637 20.3919C20.4021 19.7947 21.1671 19.3293 22.0095 19.0256C23.17 18.6239 24.3957 18.4118 25.633 18.3984C27.6905 18.3124 28.3105 18.291 33.5185 18.291ZM33.5185 15C28.2187 15 27.5481 15 25.4723 15.1117C23.8519 15.1453 22.2493 15.4358 20.7327 15.971C19.4374 16.4386 18.2606 17.154 17.2777 18.0713C16.2947 18.9886 15.5272 20.0877 15.0241 21.2984C14.4521 22.7171 14.1415 24.2163 14.1056 25.7321C14 27.6784 14 28.3185 14 33.2593C14 38.2 14 38.8444 14.1194 40.7864C14.1553 42.3023 14.4659 43.8015 15.0379 45.2201C15.5393 46.4332 16.3062 47.5348 17.2892 48.4544C18.2723 49.374 19.4499 50.0914 20.7465 50.5604C22.2631 51.0956 23.8656 51.3861 25.4861 51.4197C27.5665 51.5099 28.2416 51.5314 33.5323 51.5314C38.823 51.5314 39.5027 51.5314 41.5785 51.4197C43.199 51.3861 44.8015 51.0956 46.3181 50.5604C47.6147 50.0914 48.7923 49.374 49.7754 48.4544C50.7584 47.5348 51.5253 46.4332 52.0267 45.2201C52.5987 43.8015 52.9093 42.3023 52.9452 40.7864C53.0416 38.8401 53.0646 38.2086 53.0646 33.2593C53.0646 28.3099 53.0646 27.6741 52.9452 25.7321C52.9093 24.2163 52.5987 22.7171 52.0267 21.2984C51.5237 20.0841 50.7548 18.9817 49.7693 18.062C48.7838 17.1423 47.6035 16.4256 46.3043 15.9581C44.7878 15.4229 43.1852 15.1324 41.5647 15.0988C39.4843 15 38.8 15 33.5185 15Z" fill="white"/>
<path d="M33.5185 23.8848C31.5365 23.8848 29.599 24.4346 27.9511 25.4647C26.3031 26.4947 25.0187 27.9588 24.2602 29.6718C23.5018 31.3848 23.3033 33.2697 23.69 35.0882C24.0767 36.9066 25.0311 38.577 26.4325 39.8881C27.834 41.1991 29.6196 42.092 31.5635 42.4537C33.5074 42.8154 35.5223 42.6297 37.3534 41.9202C39.1845 41.2107 40.7495 40.0091 41.8507 38.4675C42.9518 36.9259 43.5395 35.1134 43.5395 33.2593C43.5395 30.773 42.4837 28.3886 40.6044 26.6305C38.7251 24.8724 36.1762 23.8848 33.5185 23.8848ZM33.5185 39.3514C32.2316 39.3514 30.9736 38.9945 29.9035 38.3257C28.8334 37.657 27.9993 36.7064 27.5066 35.5943C27.0139 34.4821 26.8848 33.2583 27.1355 32.0775C27.3862 30.8967 28.0056 29.8119 28.9152 28.9603C29.8249 28.1088 30.984 27.5286 32.2461 27.2932C33.5081 27.0578 34.8165 27.1778 36.0057 27.6379C37.1949 28.098 38.2116 28.8776 38.9272 29.8782C39.6428 30.8788 40.0253 32.0554 40.0262 33.2593C40.0262 34.8739 39.3406 36.4224 38.1201 37.564C36.8997 38.7057 35.2444 39.3471 33.5185 39.3471V39.3514Z" fill="white"/>
<path d="M43.9391 25.702C45.2327 25.702 46.2814 24.7211 46.2814 23.5109C46.2814 22.3008 45.2327 21.3198 43.9391 21.3198C42.6456 21.3198 41.5969 22.3008 41.5969 23.5109C41.5969 24.7211 42.6456 25.702 43.9391 25.702Z" fill="white"/>
</svg>
