<svg width="56" height="52" viewBox="0 0 56 52" fill="none" xmlns="http://www.w3.org/2000/svg">
<g clip-path="url(#clip0_233_228)">
<path d="M56 26.0004C55.9999 21.0309 54.466 16.1655 51.5801 11.9805C48.6941 7.79546 44.577 4.46608 39.7163 2.38665C34.8556 0.307213 29.455 -0.435164 24.154 0.247434C18.8529 0.930033 13.8736 3.00901 9.80572 6.23816C5.73781 9.46731 2.75171 13.7113 1.20108 18.4677C-0.349556 23.224 -0.399772 28.2933 1.05638 33.0753C2.51253 37.8573 5.41404 42.1516 9.4173 45.4497C13.4206 48.7478 18.3578 50.9115 23.6444 51.6845V33.5115H16.5138V26.0004H23.6444V20.2726C23.6444 13.7553 27.7926 10.1577 34.2015 10.1577C36.3013 10.185 38.3962 10.3549 40.4693 10.6661V17.0641H36.9185C33.4424 17.0641 32.3556 19.067 32.3556 21.1239V26.0004H40.1416L38.8972 33.5115H32.3556V51.6806C38.9442 50.7156 44.9457 47.5989 49.2802 42.8912C53.6146 38.1836 55.9975 32.194 56 26.0004Z" fill="#232627"/>
<path d="M38.8971 33.5115L40.1415 25.9965H32.3554V21.1239C32.3554 19.067 33.4589 17.0641 36.9184 17.0641H40.4485V10.6662C38.3754 10.355 36.2805 10.185 34.1806 10.1577C27.7925 10.1577 23.6443 13.7553 23.6443 20.2727V26.0004H16.5137V33.5115H23.6443V51.6807C26.5429 52.1018 29.4943 52.1018 32.3928 51.6807V33.5115H38.8971Z" fill="white"/>
</g>
<defs>
<clipPath id="clip0_233_228">
<rect width="56" height="52" fill="white"/>
</clipPath>
</defs>
</svg>
