<svg width="28" height="28" viewBox="0 0 28 28" fill="none" xmlns="http://www.w3.org/2000/svg">
<path d="M3.93555 8.08852H7.43129M7.43129 8.08852C7.43129 10.0192 8.99639 11.5843 10.927 11.5843C12.8577 11.5843 14.4228 10.0192 14.4228 8.08852C14.4228 6.15787 12.8577 4.59277 10.927 4.59277C8.99639 4.59277 7.43129 6.15787 7.43129 8.08852ZM3.93555 19.741H10.927M21.4143 19.741H24.91M21.4143 19.741C21.4143 21.6717 19.8492 23.2368 17.9185 23.2368C15.9879 23.2368 14.4228 21.6717 14.4228 19.741C14.4228 17.8104 15.9879 16.2453 17.9185 16.2453C19.8492 16.2453 21.4143 17.8104 21.4143 19.741ZM17.9185 8.08852H24.91" stroke="#141718" stroke-width="1.74787" stroke-linecap="round"/>
</svg>
