<svg width="66" height="62" viewBox="0 0 66 62" fill="none" xmlns="http://www.w3.org/2000/svg">
<g clip-path="url(#clip0_233_233)">
<path d="M33 62C51.2254 62 66 48.1208 66 31C66 13.8792 51.2254 0 33 0C14.7746 0 0 13.8792 0 31C0 48.1208 14.7746 62 33 62Z" fill="#232627"/>
<path d="M32.9999 14.9994C38.5488 14.9994 39.2039 14.9994 41.3942 15.1142C42.7113 15.1285 44.0161 15.3553 45.2515 15.7847C46.1482 16.1093 46.9626 16.6068 47.6422 17.2452C48.3217 17.8835 48.8513 18.6485 49.1968 19.4909C49.6539 20.6515 49.8954 21.8771 49.9106 23.1145C50.0084 25.172 50.0328 25.792 50.0328 31C50.0328 36.208 50.0328 36.828 49.9106 38.8854C49.8954 40.1228 49.6539 41.3485 49.1968 42.509C48.8513 43.3514 48.3217 44.1164 47.6422 44.7548C46.9626 45.3931 46.1482 45.8906 45.2515 46.2152C44.0161 46.6446 42.7113 46.8714 41.3942 46.8857C39.2039 46.9776 38.5488 47.0006 32.9999 47.0006C27.4511 47.0006 26.7959 47.0006 24.6057 46.8857C23.2886 46.8714 21.9838 46.6446 20.7484 46.2152C19.8517 45.8906 19.0373 45.3931 18.3577 44.7548C17.6782 44.1164 17.1486 43.3514 16.8031 42.509C16.3459 41.3485 16.1045 40.1228 16.0893 38.8854C15.9915 36.828 15.9671 36.208 15.9671 31C15.9671 25.792 15.9671 25.172 16.0893 23.1145C16.1045 21.8771 16.3459 20.6515 16.8031 19.4909C17.1486 18.6485 17.6782 17.8835 18.3577 17.2452C19.0373 16.6068 19.8517 16.1093 20.7484 15.7847C21.9838 15.3553 23.2886 15.1285 24.6057 15.1142C26.7959 15.0223 27.4559 14.9994 32.9999 14.9994ZM32.9999 11.4814C27.3582 11.4814 26.6444 11.4814 24.4346 11.6009C22.7096 11.6368 21.0037 11.9473 19.3893 12.5194C18.0104 13.0193 16.7577 13.784 15.7113 14.7646C14.6649 15.7452 13.8479 16.9201 13.3124 18.2142C12.7035 19.7307 12.3728 21.3333 12.3346 22.9537C12.2222 25.0342 12.2222 25.7185 12.2222 31C12.2222 36.2814 12.2222 36.9703 12.3493 39.0462C12.3875 40.6666 12.7181 42.2692 13.3271 43.7857C13.8608 45.0824 14.6771 46.26 15.7236 47.2431C16.7701 48.2261 18.0236 48.9929 19.4039 49.4943C21.0183 50.0664 22.7243 50.3769 24.4493 50.4128C26.6639 50.5093 27.3826 50.5323 33.0146 50.5323C38.6466 50.5323 39.3702 50.5323 41.5799 50.4128C43.3049 50.3769 45.0109 50.0664 46.6253 49.4943C48.0056 48.9929 49.2592 48.2261 50.3056 47.2431C51.3521 46.26 52.1684 45.0824 52.7022 43.7857C53.3111 42.2692 53.6417 40.6666 53.6799 39.0462C53.7826 36.9657 53.8071 36.2906 53.8071 31C53.8071 25.7093 53.8071 25.0296 53.6799 22.9537C53.6417 21.3333 53.3111 19.7307 52.7022 18.2142C52.1668 16.9162 51.3482 15.7378 50.2992 14.7546C49.2501 13.7715 47.9936 13.0054 46.6106 12.5056C44.9962 11.9336 43.2903 11.623 41.5653 11.5871C39.3506 11.4814 38.6222 11.4814 32.9999 11.4814Z" fill="white"/>
<path d="M33.0001 20.979C30.8902 20.979 28.8278 21.5667 27.0735 22.6679C25.3192 23.769 23.9519 25.3341 23.1445 27.1652C22.3371 28.9963 22.1259 31.0112 22.5375 32.955C22.9491 34.8989 23.9651 36.6845 25.457 38.086C26.9489 39.4874 28.8496 40.4419 30.9189 40.8285C32.9882 41.2152 35.1331 41.0167 37.0824 40.2583C39.0316 39.4998 40.6977 38.2154 41.8698 36.5674C43.042 34.9195 43.6676 32.982 43.6676 31C43.6676 28.3423 42.5437 25.7934 40.5432 23.9141C38.5426 22.0348 35.8293 20.979 33.0001 20.979ZM33.0001 37.5123C31.6301 37.5123 30.291 37.1308 29.1518 36.4159C28.0127 35.701 27.1248 34.6849 26.6003 33.4961C26.0758 32.3072 25.9384 30.999 26.2053 29.7367C26.4722 28.4745 27.1315 27.3149 28.0998 26.4046C29.0682 25.4943 30.3021 24.8742 31.6456 24.6225C32.9891 24.3709 34.3818 24.4991 35.6478 24.991C36.9137 25.4828 37.996 26.3162 38.7578 27.3858C39.5195 28.4554 39.9267 29.7131 39.9276 31C39.9276 32.726 39.1978 34.3813 37.8986 35.6017C36.5994 36.8221 34.8374 37.5077 33.0001 37.5077V37.5123Z" fill="white"/>
<path d="M44.0929 22.9217C45.47 22.9217 46.5863 21.8731 46.5863 20.5795C46.5863 19.286 45.47 18.2373 44.0929 18.2373C42.7159 18.2373 41.5996 19.286 41.5996 20.5795C41.5996 21.8731 42.7159 22.9217 44.0929 22.9217Z" fill="white"/>
</g>
<defs>
<clipPath id="clip0_233_233">
<rect width="66" height="62" fill="white"/>
</clipPath>
</defs>
</svg>
