<svg width="61" height="57" viewBox="0 0 61 57" fill="none" xmlns="http://www.w3.org/2000/svg">
<g clip-path="url(#clip0_233_240)">
<path d="M30.5 57C47.3447 57 61 44.2401 61 28.5C61 12.7599 47.3447 0 30.5 0C13.6553 0 0 12.7599 0 28.5C0 44.2401 13.6553 57 30.5 57Z" fill="#232627"/>
<path d="M32.8588 24.6111C33.3603 24.0833 33.7625 23.5513 34.2866 23.0996C35.0318 22.4207 35.9143 21.8874 36.8825 21.5307C37.8507 21.174 38.8852 21.0012 39.9257 21.0222C41.1217 21.0106 42.3137 21.1527 43.4682 21.4444C46.1161 22.158 47.6524 23.8638 48.3889 26.2789C48.8793 28.0884 49.0997 29.9525 49.0441 31.8184C49.0441 35.7536 49.0441 39.6929 49.0441 43.6407C49.0441 44.008 48.9356 44.1051 48.5471 44.1009C46.3752 44.084 44.2048 44.084 42.0359 44.1009C41.6518 44.1009 41.584 43.9953 41.584 43.6576C41.575 39.8857 41.5705 36.1293 41.5705 32.3884C41.5942 31.4475 41.4771 30.5082 41.2225 29.5976C40.7029 27.9087 39.4151 27.0642 37.5309 27.1529C34.9554 27.2796 33.6179 28.4702 33.2925 30.9149C33.2155 31.4976 33.1778 32.0842 33.1796 32.6713C33.1796 36.3151 33.1796 39.9589 33.1796 43.6027C33.1796 43.9658 33.0847 44.0713 32.6871 44.0713C30.5001 44.0544 28.3131 44.0544 26.1262 44.0713C25.7737 44.0713 25.6743 43.9869 25.6743 43.6491C25.6743 36.4347 25.6743 29.2218 25.6743 22.0102C25.6743 21.6513 25.8008 21.588 26.1623 21.588C28.2378 21.6021 30.3133 21.6021 32.3888 21.588C32.7729 21.588 32.8678 21.702 32.8407 22.0398C32.8452 22.8884 32.8588 23.7498 32.8588 24.6111Z" fill="#FEFEFE"/>
<path d="M20.966 32.853C20.966 36.4208 20.966 39.9886 20.966 43.5563C20.966 43.9532 20.862 44.0715 20.4237 44.0672C18.2548 44.0461 16.086 44.0672 13.9125 44.0672C13.5646 44.0672 13.4607 43.987 13.4607 43.645C13.4607 36.4194 13.4607 29.1937 13.4607 21.9681C13.4607 21.6683 13.5375 21.5459 13.8764 21.5459C16.0769 21.5459 18.2774 21.5459 20.478 21.5459C20.9027 21.5459 20.9569 21.6937 20.9569 22.0357C20.9569 25.6415 20.9599 29.2472 20.966 32.853Z" fill="#FEFEFE"/>
<path d="M21.5669 14.4147C21.5713 15.2166 21.3209 16.0017 20.8473 16.6704C20.3736 17.3392 19.6982 17.8615 18.9065 18.171C18.1149 18.4806 17.2427 18.5636 16.4005 18.4094C15.5583 18.2552 14.7841 17.8708 14.176 17.305C13.5679 16.7391 13.1533 16.0173 12.9848 15.231C12.8162 14.4447 12.9014 13.6293 13.2294 12.8883C13.5574 12.1473 14.1134 11.5139 14.8271 11.0686C15.5408 10.6232 16.3799 10.3859 17.2381 10.3867C18.3816 10.3911 19.4772 10.8164 20.2874 11.5704C21.0977 12.3243 21.5574 13.3463 21.5669 14.4147Z" fill="#FEFEFE"/>
</g>
<defs>
<clipPath id="clip0_233_240">
<rect width="61" height="57" fill="white"/>
</clipPath>
</defs>
</svg>
