<svg width="31" height="30" viewBox="0 0 31 30" fill="none" xmlns="http://www.w3.org/2000/svg">
<path d="M6.23444 12.9833C8.71444 17.7 12.71 21.5667 17.5839 23.9667L21.3728 20.3C21.855 19.8333 22.5267 19.7 23.1294 19.8833C25.0583 20.5 27.125 20.8333 29.2778 20.8333C29.7345 20.8333 30.1726 21.0089 30.4956 21.3215C30.8186 21.634 31 22.058 31 22.5V28.3333C31 28.7754 30.8186 29.1993 30.4956 29.5118C30.1726 29.8244 29.7345 30 29.2778 30C21.5128 30 14.0659 27.0149 8.57526 21.7014C3.08461 16.3878 0 9.18113 0 1.66667C0 1.22464 0.181448 0.800716 0.504427 0.488155C0.827406 0.175595 1.26546 0 1.72222 0H7.75C8.20676 0 8.64482 0.175595 8.96779 0.488155C9.29077 0.800716 9.47222 1.22464 9.47222 1.66667C9.47222 3.75 9.81667 5.75 10.4539 7.61667C10.6433 8.2 10.5056 8.85 10.0233 9.31667L6.23444 12.9833Z" fill="#C7C7C7"/>
</svg>
